<svg width="448" height="450" viewBox="0 0 448 450" fill="none" xmlns="http://www.w3.org/2000/svg">
<g filter="url(#filter0_d_1845_73)">
<path d="M342.336 29.6213H78.6651C51.433 29.6213 29.3569 51.7264 29.3569 78.9944V343.012C29.3569 370.28 51.433 392.385 78.6651 392.385H342.336C369.568 392.385 391.644 370.28 391.644 343.012V78.9944C391.644 51.7264 369.568 29.6213 342.336 29.6213Z" fill="url(#paint0_linear_1845_73)"/>
</g>
<path d="M291.913 227.632L291.911 227.628L285.013 217.859C283.665 216.364 282.211 214.947 280.658 213.621C279.892 212.951 279.112 212.318 278.324 211.696L277.941 211.391H277.908C277.222 210.875 276.519 210.373 275.823 209.887L275.461 209.635H275.43C271.569 207.046 267.335 204.942 262.848 203.374C262.774 203.346 262.696 203.322 262.617 203.304C262.012 203.084 261.413 202.895 260.845 202.714L260.811 202.703L260.797 202.7C260.093 202.484 259.387 202.284 258.683 202.1L193.191 183.751L193.005 183.698H192.811H192.793H192.598L171.318 177.737L171.355 177.64L169.88 177.226L155.64 173.236V151.05H243.483C247.653 151.05 251.754 151.963 255.428 153.705C259.101 155.446 262.227 157.958 264.545 161.008C266.861 164.058 268.3 167.556 268.753 171.196C269.206 174.834 268.66 178.52 267.156 181.938L267.037 182.209V182.506V182.522V183.591L268.065 183.88L292.359 190.698L292.545 190.75H292.738H292.756H293.714L294.066 189.859C296.717 183.145 297.682 175.984 296.891 168.889C296.099 161.795 293.572 154.955 289.497 148.855L289.079 148.229H289.065C284.819 142.083 279.095 136.882 272.32 133.002C265.684 129.202 258.211 126.764 250.428 125.852V104.309V102.898H249.02H223.603H222.194V104.309V125.449H197.997V104.309V102.898H196.588H171.17H169.762V104.309V125.449H128.814H127.405V126.86V191.048V192.119L128.434 192.406L153.852 199.533L208.371 214.812H208.373L250.948 226.739L250.961 226.747L251.175 226.805C251.726 226.955 252.258 227.114 252.767 227.296C252.787 227.305 252.806 227.313 252.826 227.322C252.875 227.341 252.928 227.358 252.98 227.374L253.075 227.408H253.108L253.376 227.482L253.371 227.494L254.597 228.024C259.793 230.277 263.949 234.028 266.414 238.632C268.878 243.231 269.522 248.429 268.255 253.384C266.987 258.342 263.873 262.803 259.376 266.015H259.374C254.877 269.228 249.273 270.99 243.483 270.991H155.64V222.109V221.039L154.61 220.751L129.193 213.64L127.405 213.14V214.998V295.181V296.592H128.814H169.762V317.7V319.11H171.17H196.588H197.997V317.7V296.592H222.194V317.7V319.11H223.603H249.02H250.428V317.7V296.172C258.461 295.224 266.163 292.652 272.948 288.637C280.092 284.41 286.02 278.702 290.223 271.98C294.427 265.257 296.779 257.718 297.075 249.994C297.37 242.27 295.596 234.602 291.913 227.632Z" fill="white"/>
<path d="M255.428 153.705C251.754 151.963 247.653 151.05 243.483 151.05H155.64V173.236L169.88 177.226L171.355 177.64L171.318 177.737L192.598 183.698H192.793H192.811H193.005L193.191 183.751L258.683 202.1C259.387 202.284 260.093 202.484 260.797 202.7L260.811 202.703L260.845 202.714C261.413 202.895 262.012 203.084 262.617 203.304C262.696 203.322 262.774 203.346 262.848 203.374C267.335 204.942 271.569 207.046 275.43 209.635H275.461L275.823 209.887C276.519 210.373 277.222 210.875 277.908 211.391H277.941L278.324 211.696C279.112 212.318 279.892 212.951 280.658 213.621C282.211 214.947 283.665 216.364 285.013 217.859L291.911 227.628L291.913 227.632C295.596 234.602 297.37 242.27 297.075 249.994C296.779 257.718 294.427 265.257 290.223 271.98C286.02 278.702 280.092 284.41 272.948 288.637C266.163 292.652 258.461 295.224 250.428 296.172V317.7V319.11H249.02H223.603H222.194V317.7V296.592H197.997V317.7V319.11H196.588H171.17H169.762V317.7V296.592H128.814H127.405V295.181V214.998V213.14L129.193 213.64L154.61 220.751L155.64 221.039V222.109V270.991H243.483C249.273 270.99 254.877 269.228 259.374 266.015H259.376C263.873 262.803 266.987 258.342 268.255 253.384M255.428 153.705L256.011 152.469M255.428 153.705C259.101 155.446 262.227 157.958 264.545 161.008M264.545 161.008L265.666 160.155M264.545 161.008C266.861 164.058 268.3 167.556 268.753 171.196C269.206 174.834 268.66 178.52 267.156 181.938L267.037 182.209V182.506V182.522V183.591L268.065 183.88L292.359 190.698L292.545 190.75H292.738H292.756H293.714L294.066 189.859C296.717 183.145 297.682 175.984 296.891 168.889C296.099 161.795 293.572 154.955 289.497 148.855L289.079 148.229H289.065C284.819 142.083 279.095 136.882 272.32 133.002C265.684 129.202 258.211 126.764 250.428 125.852V104.309V102.898H249.02H223.603H222.194V104.309V125.449H197.997V104.309V102.898H196.588H171.17H169.762V104.309V125.449H128.814H127.405V126.86V191.048V192.119L128.434 192.406L153.852 199.533L208.371 214.812H208.373L250.948 226.739L250.961 226.747L251.175 226.805C251.726 226.955 252.258 227.114 252.767 227.296C252.787 227.305 252.806 227.313 252.826 227.322C252.875 227.341 252.928 227.358 252.98 227.374L253.075 227.408H253.108L253.376 227.482L253.371 227.494L254.597 228.024C259.793 230.277 263.949 234.028 266.414 238.632C268.878 243.231 269.522 248.429 268.255 253.384M268.255 253.384L269.62 253.733" stroke="white" stroke-width="0.566038"/>
<defs>
<filter id="filter0_d_1845_73" x="23.6966" y="23.961" width="379.268" height="379.745" filterUnits="userSpaceOnUse" color-interpolation-filters="sRGB">
<feFlood flood-opacity="0" result="BackgroundImageFix"/>
<feColorMatrix in="SourceAlpha" type="matrix" values="0 0 0 0 0 0 0 0 0 0 0 0 0 0 0 0 0 0 127 0" result="hardAlpha"/>
<feOffset dx="2.83019" dy="2.83019"/>
<feGaussianBlur stdDeviation="4.24528"/>
<feComposite in2="hardAlpha" operator="out"/>
<feColorMatrix type="matrix" values="0 0 0 0 0 0 0 0 0 0 0 0 0 0 0 0 0 0 0.25 0"/>
<feBlend mode="normal" in2="BackgroundImageFix" result="effect1_dropShadow_1845_73"/>
<feBlend mode="normal" in="SourceGraphic" in2="effect1_dropShadow_1845_73" result="shape"/>
</filter>
<linearGradient id="paint0_linear_1845_73" x1="420.148" y1="405.232" x2="107.854" y2="-48.3911" gradientUnits="userSpaceOnUse">
<stop stop-color="#0118FE"/>
<stop offset="1" stop-color="#01FFFD"/>
</linearGradient>
</defs>
</svg>
